<mxfile host="65bd71144e">
    <diagram id="QJb4akMzFEIiLZAfJO16" name="Page-1">
        <mxGraphModel dx="883" dy="649" grid="1" gridSize="10" guides="1" tooltips="1" connect="1" arrows="1" fold="1" page="1" pageScale="1" pageWidth="850" pageHeight="1100" math="0" shadow="0">
            <root>
                <mxCell id="0"/>
                <mxCell id="1" parent="0"/>
                <mxCell id="2" value="" style="shape=actor;whiteSpace=wrap;html=1;" parent="1" vertex="1">
                    <mxGeometry x="370" y="470" width="40" height="60" as="geometry"/>
                </mxCell>
                <mxCell id="3" value="Gerne" style="ellipse;shape=cloud;whiteSpace=wrap;html=1;" parent="1" vertex="1">
                    <mxGeometry x="130" y="320" width="120" height="80" as="geometry"/>
                </mxCell>
                <mxCell id="4" value="Title" style="ellipse;shape=cloud;whiteSpace=wrap;html=1;" parent="1" vertex="1">
                    <mxGeometry x="290" y="250" width="120" height="80" as="geometry"/>
                </mxCell>
                <mxCell id="5" value="NrChapters" style="ellipse;shape=cloud;whiteSpace=wrap;html=1;" parent="1" vertex="1">
                    <mxGeometry x="425" y="340" width="120" height="80" as="geometry"/>
                </mxCell>
                <mxCell id="6" value="Description" style="ellipse;shape=cloud;whiteSpace=wrap;html=1;" parent="1" vertex="1">
                    <mxGeometry x="460" y="180" width="120" height="80" as="geometry"/>
                </mxCell>
                <mxCell id="7" value="Autor" style="ellipse;shape=cloud;whiteSpace=wrap;html=1;" parent="1" vertex="1">
                    <mxGeometry x="150" y="160" width="120" height="80" as="geometry"/>
                </mxCell>
                <mxCell id="8" value="NrPages" style="ellipse;shape=cloud;whiteSpace=wrap;html=1;" parent="1" vertex="1">
                    <mxGeometry x="590" y="280" width="120" height="80" as="geometry"/>
                </mxCell>
                <mxCell id="9" value="CoverColor" style="ellipse;shape=cloud;whiteSpace=wrap;html=1;" parent="1" vertex="1">
                    <mxGeometry x="305" y="120" width="120" height="80" as="geometry"/>
                </mxCell>
                <mxCell id="10" value="PublishYear" style="ellipse;shape=cloud;whiteSpace=wrap;html=1;" parent="1" vertex="1">
                    <mxGeometry x="290" y="340" width="120" height="80" as="geometry"/>
                </mxCell>
                <mxCell id="11" value="Publisher" style="ellipse;shape=cloud;whiteSpace=wrap;html=1;" parent="1" vertex="1">
                    <mxGeometry x="210" y="430" width="120" height="80" as="geometry"/>
                </mxCell>
                <mxCell id="12" value="PaperType" style="ellipse;shape=cloud;whiteSpace=wrap;html=1;" parent="1" vertex="1">
                    <mxGeometry x="530" y="410" width="120" height="80" as="geometry"/>
                </mxCell>
                <mxCell id="13" value="BuyDate" style="ellipse;shape=cloud;whiteSpace=wrap;html=1;" parent="1" vertex="1">
                    <mxGeometry x="480" y="80" width="120" height="80" as="geometry"/>
                </mxCell>
            </root>
        </mxGraphModel>
    </diagram>
</mxfile>